{
  "accessors": [
    {
      "bufferView": 0,
      "componentType": 5125,
      "count": 52188,
      "type": "SCALAR"
    },
    {
      "bufferView": 1,
      "componentType": 5126,
      "count": 34524,
      "max": [
        0.585447669029236,
        0.85089111328125,
        1.0
      ],
      "min": [
        -0.585447311401367,
        -0.850890755653381,
        -1.0
      ],
      "type": "VEC3"
    },
    {
      "bufferView": 2,
      "componentType": 5126,
      "count": 34524,
      "type": "VEC3"
    },
    {
      "bufferView": 3,
      "componentType": 5126,
      "count": 34524,
      "type": "VEC2"
    },
    {
      "bufferView": 4,
      "componentType": 5125,
      "count": 67290,
      "type": "SCALAR"
    },
    {
      "bufferView": 5,
      "componentType": 5126,
      "count": 33931,
      "max": [
        0.293427884578705,
        0.799751162528992,
        -0.307312250137329
      ],
      "min": [
        -0.543954968452454,
        -0.332660228013992,
        -0.973613739013672
      ],
      "type": "VEC3"
    },
    {
      "bufferView": 6,
      "componentType": 5126,
      "count": 33931,
      "type": "VEC3"
    },
    {
      "bufferView": 7,
      "componentType": 5126,
      "count": 33931,
      "type": "VEC2"
    }
  ],
  "asset": {
    "generator": "Substance Painter 2019.3.3",
    "version": "2.0"
  },
  "bufferViews": [
    {
      "buffer": 0,
      "byteLength": 208752,
      "target": 34963
    },
    {
      "buffer": 0,
      "byteLength": 414288,
      "byteOffset": 208752,
      "target": 34962
    },
    {
      "buffer": 0,
      "byteLength": 414288,
      "byteOffset": 623040,
      "target": 34962
    },
    {
      "buffer": 0,
      "byteLength": 276192,
      "byteOffset": 1037328,
      "target": 34962
    },
    {
      "buffer": 0,
      "byteLength": 269160,
      "byteOffset": 1313520,
      "target": 34963
    },
    {
      "buffer": 0,
      "byteLength": 407172,
      "byteOffset": 1582680,
      "target": 34962
    },
    {
      "buffer": 0,
      "byteLength": 407172,
      "byteOffset": 1989852,
      "target": 34962
    },
    {
      "buffer": 0,
      "byteLength": 271448,
      "byteOffset": 2397024,
      "target": 34962
    }
  ],
  "buffers": [
    {
      "byteLength": 2668472,
      "uri": "cage_pose01_SP_Proj1.bin"
    }
  ],
  "images": [
    {
      "uri": "outer_metal_skin_baseColor.png"
    },
    {
      "uri": "outer_metal_skin_occlusionRoughnessMetallic.png"
    },
    {
      "uri": "outer_metal_skin_normal.png"
    },
    {
      "uri": "rsMaterial2_baseColor.png"
    },
    {
      "uri": "rsMaterial2_occlusionRoughnessMetallic.png"
    },
    {
      "uri": "rsMaterial2_normal.png"
    }
  ],
  "materials": [
    {
      "alphaMode": "BLEND",
      "name": "outer_metal_skin",
      "normalTexture": {
        "index": 2
      },
      "occlusionTexture": {
        "index": 1
      },
      "pbrMetallicRoughness": {
        "baseColorTexture": {
          "index": 0
        },
        "metallicRoughnessTexture": {
          "index": 1
        }
      }
    },
    {
      "alphaMode": "BLEND",
      "name": "rsMaterial2",
      "normalTexture": {
        "index": 5
      },
      "occlusionTexture": {
        "index": 4
      },
      "pbrMetallicRoughness": {
        "baseColorTexture": {
          "index": 3
        },
        "metallicRoughnessTexture": {
          "index": 4
        }
      }
    }
  ],
  "meshes": [
    {
      "name": "Female_Skin1",
      "primitives": [
        {
          "attributes": {
            "NORMAL": 2,
            "POSITION": 1,
            "TEXCOORD_0": 3
          },
          "indices": 0,
          "material": 0,
          "mode": 4
        }
      ]
    },
    {
      "name": "normal2",
      "primitives": [
        {
          "attributes": {
            "NORMAL": 6,
            "POSITION": 5,
            "TEXCOORD_0": 7
          },
          "indices": 4,
          "material": 1,
          "mode": 4
        }
      ]
    }
  ],
  "nodes": [
    {
      "children": [
        1,
        3
      ],
      "name": "root",
      "scale": [
        0.434133350849152,
        0.434133350849152,
        0.434133350849152
      ],
      "translation": [
        -0.0463573634624481,
        0.248564749956131,
        -0.0960763692855835
      ]
    },
    {
      "children": [
        2
      ],
      "name": "Female_Skin1"
    },
    {
      "mesh": 0,
      "name": "Female_Skin1"
    },
    {
      "children": [
        4
      ],
      "name": "normal2"
    },
    {
      "mesh": 1,
      "name": "normal2"
    }
  ],
  "samplers": [
    {
      "magFilter": 9729,
      "minFilter": 9985,
      "wrapS": 10497,
      "wrapT": 10497
    }
  ],
  "scene": 0,
  "scenes": [
    {
      "name": "Scene",
      "nodes": [
        0
      ]
    }
  ],
  "textures": [
    {
      "sampler": 0,
      "source": 0
    },
    {
      "sampler": 0,
      "source": 1
    },
    {
      "sampler": 0,
      "source": 2
    },
    {
      "sampler": 0,
      "source": 3
    },
    {
      "sampler": 0,
      "source": 4
    },
    {
      "sampler": 0,
      "source": 5
    }
  ]
}